<?xml version="1.0" encoding="utf-8"?>
<svg version="1.0" xmlns="http://www.w3.org/2000/svg" width="700pt" height="700pt" viewBox="0 0 512.000000 512.000000" preserveAspectRatio="xMidYMid meet">
  <g transform="translate(0.000000,512.000000) scale(0.100000,-0.100000)" fill="#0e998f" stroke="none">
    <path d="M271 4903 c-32 -26 -38 -81 -30 -258 15 -287 80 -579 212 -948 l60 -168 -31 -42 c-255 -344 -380 -646 -422 -1022 -47 -422 75 -909 305 -1218 294 -395 645 -592 1690 -947 323 -110 443 -144 510 -143 82 0 360 85 785 238 718 259 994 407 1256 672 388 395 547 996 423 1607 -53 260 -166 509 -340 744 -41 54 -69 102 -69 116 0 14 20 80 45 148 56 149 124 382 159 538 41 189 56 316 56 489 0 159 -1 162 -25 186 -44 45 -39 47 -385 -155 -304 -177 -728 -419 -806 -459 l-61 -31 -102 45 c-471 205 -1044 246 -1562 111 -107 -28 -186 -56 -330 -117 l-97 -41 -328 187 c-319 182 -411 235 -692 399 -148 86 -185 98 -221 69z m1250 -1488 c257 -45 462 -172 645 -398 92 -115 159 -226 271 -452 130 -260 115 -261 255 18 122 242 193 355 301 478 146 167 338 292 522 340 115 30 290 30 404 0 277 -73 502 -263 632 -536 88 -183 118 -325 119 -546 0 -206 -37 -366 -128 -544 -115 -228 -277 -387 -503 -494 -154 -74 -244 -94 -414 -95 -152 -1 -207 8 -356 56 l-96 31 -289 -292 c-237 -239 -294 -291 -316 -291 -39 0 -109 62 -383 341 l-240 244 -80 -28 c-137 -48 -208 -60 -360 -61 -154 0 -252 19 -383 73 -265 110 -488 347 -595 633 -57 151 -71 239 -71 443 0 173 3 199 26 286 104 386 330 649 651 760 138 48 254 58 388 34z"/>
    <path d="M1400 2882 c-98 -33 -164 -73 -230 -141 -104 -106 -160 -244 -160 -398 0 -99 15 -164 60 -259 64 -132 196 -242 335 -279 270 -70 547 97 631 380 24 81 24 239 0 320 -51 169 -170 303 -326 366 -78 31 -233 36 -310 11z m331 -310 c40 -23 63 -70 63 -128 0 -59 -20 -95 -67 -124 -93 -57 -207 15 -207 130 0 90 73 157 155 143 17 -3 42 -12 56 -21z"/>
    <path d="M3450 2881 c-94 -30 -162 -71 -225 -135 -106 -107 -157 -237 -158 -401 0 -164 52 -287 172 -405 63 -63 90 -82 156 -110 256 -107 535 4 663 265 39 78 52 145 52 259 0 158 -49 275 -165 391 -77 78 -141 116 -230 140 -78 20 -196 18 -265 -4z m112 -329 c32 -31 51 -92 41 -132 -30 -126 -154 -160 -242 -66 -32 34 -41 119 -17 164 43 83 152 100 218 34z"/>
    <path d="M2538 2043 c-8 -10 -42 -59 -75 -108 -49 -73 -131 -183 -225 -302 -20 -25 220 -494 292 -570 24 -26 30 -28 53 -10 48 37 315 541 303 573 -3 7 -33 48 -68 90 -35 42 -103 135 -153 207 -49 72 -95 132 -101 134 -6 2 -17 -4 -26 -14z"/>
  </g>
</svg>